<svg width="20" height="17" viewBox="0 0 20 17" fill="none" xmlns="http://www.w3.org/2000/svg" class="cursor-pointer w-2rem min-w-min">
<path d="M1.30625 2.6125H18.6938C19.4283 2.6125 20 2.04109 20 1.30625C20 0.571711 19.4286 0 18.6938 0L1.30625 0.000284708C0.571712 0.000284708 0 0.57169 0 1.30653C0.00028469 2.04107 0.571697 2.61249 1.30625 2.61249V2.6125Z" fill="Black"></path>
<path d="M1.30625 9.67402H18.6938C19.4283 9.67402 20 9.10262 20 8.36777C20 7.63324 19.4286 7.06152 18.6938 7.06152H1.30625C0.571712 7.06152 0 7.63293 0 8.36777C0.00028469 9.10231 0.571697 9.67402 1.30625 9.67402Z" fill="Black"></path>
<path d="M18.6938 16.7355C19.4283 16.7355 20 16.1641 20 15.4293C20 14.6948 19.4286 14.123 18.6938 14.123L1.30625 14.1233C0.571712 14.1233 0 14.6947 0 15.4296C0 16.1641 0.571405 16.7358 1.30625 16.7358L18.6938 16.7355Z" fill="Black"></path>
</svg>